<svg width="100%" height="300" viewBox="0 0 1200 300" xmlns="http://www.w3.org/2000/svg">
  <defs>
    <linearGradient id="bg" x1="0" y1="0" x2="1" y2="1">
      <stop offset="0%" stop-color="#0b0e13"/>
      <stop offset="100%" stop-color="#151b24"/>
    </linearGradient>
    <radialGradient id="glow" cx="50%" cy="50%" r="50%">
      <stop offset="0%" stop-color="#7fb0d9" stop-opacity="0.35"/>
      <stop offset="100%" stop-color="#7fb0d9" stop-opacity="0"/>
    </radialGradient>
    <clipPath id="frame"><rect x="0" y="0" width="1200" height="300"/></clipPath>
  </defs>

  <g clip-path="url(#frame)">
    <rect width="1200" height="300" fill="url(#bg)"/>

    <g stroke="#2a3340" stroke-width="1" opacity="0.5">
      <line x1="0" y1="65" x2="1200" y2="65"/>
      <line x1="0" y1="130" x2="1200" y2="130"/>
      <line x1="0" y1="195" x2="1200" y2="195"/>
      <line x1="150" y1="0" x2="150" y2="300"/>
      <line x1="450" y1="0" x2="450" y2="300"/>
      <line x1="750" y1="0" x2="750" y2="300"/>
      <line x1="1050" y1="0" x2="1050" y2="300"/>
    </g>

    <circle cx="600" cy="130" r="260" fill="url(#glow)"/>

    <path d="M -40 210 C 200 40, 380 260, 600 110 S 980 -20, 1240 150" fill="none" stroke="#3f5a70" stroke-width="1.2" opacity="0.7"/>
    <path d="M -40 60 C 220 220, 420 10, 640 160 S 1000 320, 1240 40" fill="none" stroke="#2c4152" stroke-width="1" opacity="0.5"/>

    <path id="trace" d="M -40 150 C 180 60, 340 220, 600 130 S 940 20, 1240 170" fill="none" stroke="#c9a24a" stroke-width="1.6" stroke-dasharray="4 7">
      <animate attributeName="stroke-dashoffset" from="0" to="-110" dur="7s" repeatCount="indefinite"/>
    </path>

    <g>
      <animateMotion dur="9s" repeatCount="indefinite" rotate="auto">
        <mpath href="#trace"/>
      </animateMotion>
      <circle r="4.5" fill="#c9a24a"/>
      <line x1="0" y1="0" x2="0" y2="-16" stroke="#9cc6e8" stroke-width="1.4"/>
      <line x1="0" y1="0" x2="16" y2="0" stroke="#f0a066" stroke-width="1.4"/>
    </g>

    <g fill="#9cc6e8" opacity="0.6">
      <circle cx="120" cy="90" r="2"/>
      <circle cx="260" cy="185" r="2.4"/>
      <circle cx="520" cy="60" r="2"/>
      <circle cx="720" cy="200" r="2.6"/>
      <circle cx="880" cy="95" r="2"/>
      <circle cx="1040" cy="175" r="2.2"/>
      <circle cx="1140" cy="70" r="2"/>
    </g>

    <!-- title block, brighter text -->
    <text x="80" y="118" font-family="Georgia, 'Times New Roman', serif" font-size="56" fill="#ffffff" font-weight="600">Hazem</text>
    <text x="80" y="154" font-family="'Courier New', monospace" font-size="17" fill="#9cc6e8" letter-spacing="1" font-weight="bold">Mathematics &amp; Data Science</text>
    <text x="80" y="180" font-family="'Courier New', monospace" font-size="14" fill="#c9d2dc" letter-spacing="0.5">Analysis and Geometry · Universitas Andalas</text>

    <!-- skills row -->
    <g font-family="'Courier New', monospace" font-size="14" font-weight="bold">
      <rect x="80" y="248" width="66" height="30" rx="5" fill="#1d2733" stroke="#3f5a70"/>
      <text x="113" y="268" fill="#ffffff" text-anchor="middle">SQL</text>

      <rect x="156" y="248" width="80" height="30" rx="5" fill="#1d2733" stroke="#3f5a70"/>
      <text x="196" y="268" fill="#ffffff" text-anchor="middle">Python</text>

      <rect x="246" y="248" width="90" height="30" rx="5" fill="#1d2733" stroke="#3f5a70"/>
      <text x="291" y="268" fill="#ffffff" text-anchor="middle">MATLAB</text>

      <rect x="346" y="248" width="88" height="30" rx="5" fill="#1d2733" stroke="#3f5a70"/>
      <text x="390" y="268" fill="#ffffff" text-anchor="middle">Tableau</text>

      <rect x="444" y="248" width="98" height="30" rx="5" fill="#1d2733" stroke="#3f5a70"/>
      <text x="493" y="268" fill="#ffffff" text-anchor="middle">Power BI</text>

      <rect x="552" y="248" width="60" height="30" rx="5" fill="#1d2733" stroke="#3f5a70"/>
      <text x="582" y="268" fill="#ffffff" text-anchor="middle">R</text>

      <rect x="622" y="248" width="90" height="30" rx="5" fill="#1d2733" stroke="#3f5a70"/>
      <text x="667" y="268" fill="#ffffff" text-anchor="middle">Excel</text>
    </g>
  </g>
</svg>
